<svg width="48" height="49" viewBox="0 0 48 49" fill="none" xmlns="http://www.w3.org/2000/svg">
<rect y="0.5" width="48" height="48" rx="8" fill="#E8EDF2"/>
<g clip-path="url(#clip0_1_249)">
<path fill-rule="evenodd" clip-rule="evenodd" d="M24 18.5C21.9289 18.5 20.25 20.1789 20.25 22.25C20.25 24.3211 21.9289 26 24 26C26.0711 26 27.75 24.3211 27.75 22.25C27.75 20.1789 26.0711 18.5 24 18.5ZM24 24.5C22.7574 24.5 21.75 23.4926 21.75 22.25C21.75 21.0074 22.7574 20 24 20C25.2426 20 26.25 21.0074 26.25 22.25C26.25 23.4926 25.2426 24.5 24 24.5ZM24 14C19.4458 14.0052 15.7552 17.6958 15.75 22.25C15.75 25.1938 17.1103 28.3138 19.6875 31.2734C20.8455 32.6108 22.1489 33.8151 23.5734 34.8641C23.8318 35.045 24.1757 35.045 24.4341 34.8641C25.856 33.8147 27.1568 32.6104 28.3125 31.2734C30.8859 28.3138 32.25 25.1938 32.25 22.25C32.2448 17.6958 28.5542 14.0052 24 14ZM24 33.3125C22.4503 32.0938 17.25 27.6172 17.25 22.25C17.25 18.5221 20.2721 15.5 24 15.5C27.7279 15.5 30.75 18.5221 30.75 22.25C30.75 27.6153 25.5497 32.0938 24 33.3125Z" fill="#0D141C"/>
</g>
<defs>
<clipPath id="clip0_1_249">
<rect width="24" height="24" fill="white" transform="translate(12 12.5)"/>
</clipPath>
</defs>
</svg>
